<?xml version="1.0" encoding="UTF-8"?> <svg xmlns="http://www.w3.org/2000/svg" width="102" height="17" viewBox="0 0 102 17" fill="none"><path d="M0 7.0769V7.43551C0.832083 7.28796 1.6765 7.22135 2.52142 7.23659C1.63893 7.14975 0.798451 7.09091 0 7.0769Z" fill="white"></path><path d="M7.2589 11.7666C4.50775 11.0018 2.04515 10.3238 0 10.8813V16.7198C0 16.7941 0.0295166 16.8654 0.0820564 16.9179C0.134596 16.9704 0.205856 16.9999 0.280158 16.9999H16.7198C16.7941 16.9999 16.8654 16.9704 16.9179 16.9179C16.9705 16.8654 17 16.7941 17 16.7198V12.6687C16.0859 12.9103 15.1439 13.03 14.1984 13.0245C11.8311 13.0245 9.46094 12.3689 7.2589 11.761" fill="white"></path><path d="M7.41774 10.9513C6.47921 10.7608 5.53508 10.5702 4.59375 10.4246C5.51547 10.6263 6.46241 10.8868 7.42615 11.1558C10.6115 12.0467 13.8866 12.9348 16.9992 12.0187V10.9681C14.0155 12.2904 10.6704 11.6124 7.41774 10.9513Z" fill="white"></path><path d="M8.59245 7.05151C8.10498 6.95906 7.6203 6.861 7.13843 6.77135C4.68144 6.26426 2.32251 5.78799 0 6.09337V6.13259C2.01434 6.16901 4.33405 6.47999 6.74621 6.80497C7.35976 6.88902 7.9761 6.97306 8.59245 7.05151Z" fill="white"></path><path d="M7.16925 6.60893C10.1445 7.21127 13.1983 7.84443 16.4481 7.11882C13.8762 7.06279 11.4557 6.68177 9.07432 6.30636C6.05982 5.83289 3.13777 5.37343 0 5.52472V5.93375C2.33932 5.63118 4.70666 6.11025 7.16925 6.60893Z" fill="white"></path><path d="M7.71836 9.85042C9.69908 10.2174 11.7274 10.59 14.0079 10.4331C12.1677 10.2572 10.3391 9.9766 8.53082 9.59267C5.39024 9.01274 2.52142 8.46644 0 9.02675V9.54224C2.77917 8.9343 5.19693 9.38255 7.71836 9.85042Z" fill="white"></path><path d="M8.18062 5.41539C5.54153 5.01196 2.85761 4.60013 0 4.65896V5.16044C3.22742 5.00355 6.21111 5.47422 9.13316 5.93368C11.6546 6.33431 14.246 6.74053 17 6.74614V6.16341C16.591 6.18302 16.1847 6.19142 15.7841 6.19142C13.1478 6.19142 10.6432 5.80761 8.18062 5.42939" fill="white"></path><path d="M0 0.280158V4.50214C2.86042 4.44051 5.55834 4.85514 8.20583 5.26137C11.0382 5.69562 13.9239 6.13827 17 5.98978V0.280158C17 0.205856 16.9705 0.134596 16.9179 0.0820564C16.8654 0.0295166 16.7941 0 16.7198 0L0.280158 0C0.205856 0 0.134596 0.0295166 0.0820564 0.0820564C0.0295166 0.134596 0 0.205856 0 0.280158H0Z" fill="white"></path><path d="M8.34375 7.97046L8.81442 8.06011C11.5488 8.5784 14.3391 9.1107 17.0006 8.82774V8.32346C16.1851 8.43044 15.3633 8.48192 14.5408 8.47755C12.4666 8.43867 10.3968 8.26931 8.34375 7.97046Z" fill="white"></path><path d="M16.9993 7.37378V7.14966C16.2727 7.33965 15.5314 7.46805 14.7832 7.53347C15.5247 7.53087 16.2651 7.47751 16.9993 7.37378Z" fill="white"></path><path d="M15.0361 10.4836C12.3214 10.8619 9.97643 10.4276 7.69034 10.0046C5.16892 9.53951 2.76796 9.09406 0 9.7048V10.0074C2.40936 9.61515 4.97281 10.1334 7.48022 10.6433C10.7273 11.3017 14.0667 11.9797 17.0056 10.6209V10.4192C16.3537 10.4784 15.6989 10.4999 15.0445 10.4836" fill="white"></path><path d="M30.0524 1.89102C30.9359 2.27763 31.3776 2.19078 31.3776 1.63047H31.7418L32.0219 5.4098L31.6774 5.44902C31.4982 4.55288 31.1147 3.71015 30.5567 2.98643C30.2572 2.61324 29.8707 2.31924 29.4311 2.13021C28.9915 1.94118 28.5122 1.86289 28.0353 1.90222C27.3907 1.89434 26.7639 2.11353 26.2647 2.52137C25.9779 2.75306 25.78 3.07668 25.7044 3.43749C25.5926 3.8107 25.5801 4.2066 25.668 4.58614C25.7391 4.92999 25.9153 5.24326 26.1722 5.48264C26.5028 5.81883 27.2938 6.21479 28.5452 6.67051C29.4009 6.96133 30.2335 7.31627 31.0358 7.73231C31.6355 8.06953 32.1479 8.54256 32.5318 9.11349C32.8869 9.76184 33.0428 10.5005 32.9801 11.2371C32.9554 11.8084 32.8173 12.3692 32.574 12.8867C32.3306 13.4042 31.9868 13.8682 31.5625 14.2516C30.6408 15.0921 29.4333 15.4927 27.9456 15.4199C27.0264 15.363 26.1341 15.0874 25.343 14.6158C25.0857 14.462 24.8146 14.3326 24.5333 14.2292C24.4359 14.1957 24.3309 14.1917 24.2312 14.2176C24.1316 14.2435 24.0417 14.2982 23.973 14.3749C23.7803 14.6115 23.6807 14.9104 23.6928 15.2153H23.3398V11.0522H23.6788C23.879 12.0453 24.3503 12.9636 25.0404 13.7053C25.807 14.4477 26.8308 14.8653 27.898 14.8707C28.6872 14.9454 29.4781 14.7476 30.1393 14.3104C30.4961 14.0646 30.765 13.7112 30.9069 13.3019C31.0508 12.905 31.1016 12.4804 31.0554 12.0608C31.0145 11.6788 30.8734 11.3144 30.6464 11.0046C30.3552 10.6743 30.0069 10.399 29.6182 10.1921C29.0779 9.89521 28.516 9.63954 27.9372 9.42727C27.2789 9.17233 26.7858 8.95941 26.4636 8.79411C24.5697 7.8341 23.6163 6.62009 23.6032 5.15206C23.5912 4.66465 23.6835 4.18032 23.8739 3.73146C24.0643 3.28261 24.3483 2.8796 24.707 2.54939C25.5531 1.81164 26.642 1.4437 27.9737 1.44556C28.6917 1.45171 29.4006 1.60722 30.0552 1.90222" fill="white"></path><path d="M49.0021 1.59131L49.2066 4.84675L48.8396 4.90278C48.7107 2.96969 47.6265 2.00407 45.587 2.00594H42.1662V7.68755H43.9004C45.2321 7.68755 45.8979 7.00583 45.8979 5.6424H46.2621V10.1894H45.8979C45.8979 8.80351 45.2321 8.10966 43.9004 8.10779H42.1662V12.5903C42.1662 14.1144 43.1935 14.8773 45.248 14.8792C48.1205 14.8792 49.6212 13.6941 49.7501 11.324L50.0863 11.3548L49.851 15.2434H38.0843V14.8484C39.2162 14.8297 39.7821 14.2694 39.7821 13.1674V3.68129C39.7821 2.52143 39.2218 1.96112 38.0703 1.96112V1.59131H49.0021Z" fill="white"></path><path d="M59.8609 1.59131C59.8609 1.80423 60.015 2.104 60.3288 2.49342C61.5783 4.34807 63.6496 7.19727 66.5427 11.041V3.68129C66.5427 2.54104 65.9824 1.96672 64.8281 1.96672V1.59131H68.6607V1.98633C67.5401 1.98633 66.9798 2.54665 66.9798 3.68129V15.2322H66.2597L57.2162 3.08175V13.1394C57.2162 14.303 57.7822 14.8848 58.914 14.8848V15.2322H55.0898V14.8652C56.1993 14.8652 56.7596 14.2899 56.7708 13.1394V3.68129C56.7708 2.54104 56.2105 1.96672 55.0898 1.96672V1.59131H59.8609Z" fill="white"></path><path d="M80.6445 1.89111C81.5148 2.27773 81.9566 2.19088 81.9696 1.63057H82.3338L82.614 5.4099L82.2666 5.44912C82.0875 4.55298 81.704 3.71025 81.146 2.98653C80.8465 2.61334 80.4599 2.31933 80.0203 2.1303C79.5807 1.94127 79.1015 1.86299 78.6246 1.90232C77.9791 1.8945 77.3515 2.11364 76.8511 2.52147C76.564 2.75285 76.366 3.0766 76.2908 3.43759C76.1767 3.81031 76.1632 4.20659 76.2516 4.58623C76.3252 4.92855 76.4999 5.24087 76.7531 5.48274C77.0874 5.81893 77.8784 6.21489 79.126 6.67061C79.9834 6.96173 80.8178 7.31666 81.6222 7.73241C82.22 8.07123 82.7312 8.54399 83.1155 9.11359C83.4722 9.76129 83.6273 10.5008 83.5609 11.2372C83.5375 11.8088 83.4 12.3699 83.1565 12.8876C82.9131 13.4053 82.5686 13.8691 82.1433 14.2517C81.2216 15.0922 80.0169 15.4928 78.5293 15.42C77.6085 15.3626 76.7149 15.0849 75.9238 14.6103C75.6663 14.457 75.3953 14.3276 75.1142 14.2237C75.0167 14.1906 74.9118 14.1867 74.8122 14.2126C74.7126 14.2385 74.6228 14.293 74.5538 14.3694C74.3634 14.6073 74.2641 14.9053 74.2737 15.2098H73.9375V11.0523H74.2737C74.4751 12.0467 74.9495 12.9654 75.6437 13.7054C76.4099 14.4483 77.434 14.866 78.5013 14.8708C79.2904 14.9455 80.0813 14.7477 80.7425 14.3105C81.0993 14.0647 81.3683 13.7113 81.5102 13.302C81.6525 12.9047 81.7033 12.4805 81.6587 12.0609C81.6221 11.6748 81.4796 11.3064 81.2468 10.9963C80.9556 10.6659 80.6073 10.3907 80.2186 10.1838C79.6785 9.88674 79.1165 9.63106 78.5377 9.41896C77.8793 9.16402 77.3862 8.9511 77.0641 8.78581C75.1702 7.8258 74.2167 6.61178 74.2036 5.14375C74.191 4.65624 74.2829 4.17169 74.4733 3.72273C74.6638 3.27376 74.9482 2.87083 75.3075 2.54108C76.1479 1.80426 77.2406 1.43726 78.5741 1.43726C79.293 1.44366 80.0028 1.59916 80.6585 1.89391" fill="white"></path><path d="M99.5524 13.3551L94.6749 1.62207H94.0389L89.5788 13.3551C89.1922 14.3525 88.5207 14.8418 87.5645 14.8231V15.235H91.016V14.8231C89.9607 14.8231 89.6283 14.3338 90.0186 13.3551C90.0186 13.3551 92.0134 8.16096 93.3805 4.59735C94.0781 6.33433 94.9802 8.56719 95.6947 10.3406H92.4532L92.3019 10.7356H95.8571C96.4707 12.2569 96.9161 13.3551 96.9161 13.3551C97.3168 14.3469 96.989 14.8371 95.9244 14.8231V15.235H101.528V14.8231C100.627 14.7988 99.9736 14.3095 99.5664 13.3551" fill="white"></path></svg> 