<svg width="535" height="99" viewBox="0 0 535 99" fill="none" xmlns="http://www.w3.org/2000/svg">
<mask id="mask0_17_2117" style="mask-type:luminance" maskUnits="userSpaceOnUse" x="0" y="3" width="66" height="96">
<path d="M0 3.30066H65.5919V98.4647H0V3.30066Z" fill="white"/>
</mask>
<g mask="url(#mask0_17_2117)">
<path fill-rule="evenodd" clip-rule="evenodd" d="M45.7024 6.40926C51.66 9.03606 54.662 8.44535 54.7379 4.64376H57.2214L59.1864 30.3673L56.8383 30.6181C55.1177 23.3779 52.5781 17.7844 49.2657 13.8475C44.9494 8.65326 39.2461 6.19806 32.1788 6.48186C27.1722 6.56106 23.064 7.97016 19.9035 10.6729C17.9517 12.1942 16.6638 14.2732 16.0264 16.9033C15.2602 19.4047 15.1644 22.0084 15.7754 24.7045C16.2311 27.0046 17.3903 29.0308 19.1968 30.8062C21.4391 33.0997 26.8255 35.7793 35.3491 38.8681C43.6251 41.9173 49.2657 44.3428 52.3205 46.1149C56.8284 48.7978 60.2101 51.9328 62.4921 55.5166C64.7939 59.3347 65.7979 64.1461 65.5568 69.9541C65.1242 77.9962 61.901 84.8205 55.8839 90.4636C49.6257 96.2649 41.4191 98.9115 31.2871 98.4033C25.4384 98.1459 19.5204 96.3342 13.5561 92.9353C11.251 91.6449 9.41815 90.7539 8.03772 90.3018C6.66389 89.8629 5.42217 90.193 4.2696 91.2885C3.11704 92.394 2.45655 94.318 2.29143 97.0701H-0.000488281V68.7231H2.29143C4.17053 76.4517 7.25504 82.4676 11.5681 86.7808C16.6638 91.777 23.1465 94.4235 31.0361 94.737C37.2976 94.9845 42.4131 93.6712 46.353 90.8464C48.8562 89.0611 50.5801 86.7808 51.5676 83.9658C52.4956 81.603 52.8324 78.8079 52.5781 75.541C52.3205 72.9571 51.3826 70.5513 49.7809 68.3569C48.3477 66.5452 46.0161 64.684 42.7929 62.8327C39.6291 61.0474 35.7653 59.3083 31.2871 57.6187C26.7825 55.8829 23.447 54.4375 21.2509 53.3056C8.34815 46.7716 1.86871 38.5183 1.77624 28.5259C1.77624 21.4144 4.28281 15.5107 9.28275 10.7983C15.0423 5.80206 22.4695 3.30066 31.5216 3.30066C36.2342 3.30066 40.9699 4.34016 45.7024 6.40926Z" fill="white"/>
</g>
<path fill-rule="evenodd" clip-rule="evenodd" d="M174.702 4.38866L176.102 26.5152L173.602 26.8881C172.734 13.7574 165.346 7.17386 151.459 7.17386H128.174V45.8433H139.973C149.035 45.8433 153.58 41.2134 153.58 31.9305H156.056V62.868H153.58C153.58 53.4234 149.035 48.7044 139.973 48.7044H128.174V79.1271C128.174 89.4891 135.155 94.6866 149.105 94.6866C168.635 94.6866 178.847 86.6214 179.738 70.5174L182.034 70.6956L180.435 97.1583H100.288V94.6305C108.022 94.4556 111.889 90.6078 111.889 83.0838V18.5985C111.952 10.7016 108.072 6.79766 100.288 6.93296V4.38866H174.702Z" fill="white"/>
<path fill-rule="evenodd" clip-rule="evenodd" d="M248.627 4.38866C248.627 5.83076 249.697 7.86356 251.821 10.5003C260.305 23.1294 274.42 42.5268 294.129 68.6628V18.5985C294.129 10.827 290.242 6.93296 282.458 6.93296V4.38866H308.544V7.06166C300.882 6.97916 297.081 10.827 297.081 18.5985V97.1583H292.16L230.642 14.523V82.9419C230.589 90.852 234.44 94.8153 242.187 94.8153V97.1583H216.147V94.68C223.72 94.68 227.518 90.7629 227.581 82.9419V18.5985C227.518 10.827 223.72 6.93296 216.147 6.93296V4.38866H248.627Z" fill="white"/>
<path fill-rule="evenodd" clip-rule="evenodd" d="M390.107 6.40926C396.068 9.03606 399.07 8.44535 399.159 4.64376H401.633L403.598 30.3673L401.243 30.6181C399.516 23.3779 396.98 17.7844 393.674 13.8475C389.354 8.65325 383.658 6.19806 376.584 6.48186C371.574 6.56106 367.485 7.97016 364.309 10.6729C362.363 12.1942 361.065 14.2732 360.445 16.9033C359.662 19.4047 359.593 22.0084 360.174 24.7045C360.653 27.0046 361.799 29.0308 363.608 30.8062C365.857 33.0997 371.237 35.7793 379.757 38.8681C388.01 41.9173 393.674 44.3428 396.745 46.1149C401.224 48.7978 404.609 51.9328 406.924 55.5166C409.176 59.3347 410.21 64.1461 409.959 69.9541C409.529 77.9962 406.316 84.8206 400.302 90.4636C394.021 96.265 385.821 98.9116 375.705 98.4034C369.83 98.146 363.909 96.3343 357.958 92.9353C355.659 91.645 353.823 90.754 352.446 90.3019C351.076 89.863 349.807 90.193 348.655 91.2886C347.525 92.3941 346.875 94.318 346.693 97.0701H344.411V68.7231H346.693C348.559 76.4517 351.657 82.4676 355.983 86.7808C361.065 91.777 367.548 94.4236 375.438 94.7371C381.699 94.9846 386.821 93.6712 390.751 90.8464C393.258 89.0611 395.005 86.7808 395.963 83.9659C396.907 81.6031 397.231 78.8079 396.98 75.541C396.745 72.9571 395.804 70.5513 394.196 68.3569C392.746 66.5452 390.411 64.684 387.195 62.8327C384.031 61.0474 380.183 59.3083 375.705 57.6187C371.194 55.8829 367.859 54.4375 365.639 53.3056C352.747 46.7716 346.274 38.5183 346.181 28.5259C346.181 21.4144 348.685 15.5107 353.691 10.7983C359.464 5.80206 366.881 3.30066 375.936 3.30066C380.646 3.30066 385.385 4.34016 390.107 6.40926Z" fill="white"/>
<mask id="mask1_17_2117" style="mask-type:luminance" maskUnits="userSpaceOnUse" x="437" y="4" width="96" height="94">
<path d="M437.252 4.58699H532.236V97.1817H437.252V4.58699Z" fill="white"/>
</mask>
<g mask="url(#mask1_17_2117)">
<path fill-rule="evenodd" clip-rule="evenodd" d="M518.836 84.4074L485.643 4.58699H481.32L450.947 84.4074C448.319 91.1889 443.735 94.5252 437.252 94.3767V97.1817H460.733V94.3767C453.527 94.3767 451.264 91.0668 453.943 84.4074C453.943 84.4074 467.532 49.0644 476.809 24.8358C481.551 36.6399 487.694 51.8265 492.558 63.9078H470.471L469.454 66.5742H493.652C497.836 76.9131 500.874 84.4074 500.874 84.4074C503.605 91.1427 501.353 94.4823 494.117 94.3767V97.1817H532.238V94.3767C526.092 94.2216 521.637 90.8787 518.836 84.4074Z" fill="white"/>
</g>
</svg>
