<svg width="3840" height="886" viewBox="0 0 3840 886" fill="none" xmlns="http://www.w3.org/2000/svg">
<path d="M1345.28 576.013C1333.12 584.333 1319.04 590.093 1303.68 593.293C1288.32 596.493 1271.68 598.413 1254.4 597.773C1222.4 597.773 1194.24 590.733 1170.56 578.573C1146.88 565.773 1128.96 548.493 1115.52 526.093C1102.72 503.693 1096.32 478.093 1095.68 449.293C1095.68 419.853 1102.72 392.973 1116.16 370.573C1129.6 347.533 1148.16 329.613 1171.84 316.813C1195.52 304.013 1223.04 296.973 1253.76 296.973C1291.52 296.973 1321.6 303.373 1344.64 315.533V376.973C1330.56 367.373 1316.48 360.333 1303.04 356.493C1289.6 352.013 1274.24 350.093 1256.96 350.093C1229.44 350.733 1207.04 359.693 1189.12 376.973C1171.2 394.253 1162.24 417.293 1161.6 446.733C1161.6 464.653 1165.44 480.653 1173.76 495.373C1181.44 510.093 1192.32 522.253 1205.76 531.213C1219.2 540.173 1235.2 544.653 1252.48 545.293C1269.12 545.933 1284.48 544.013 1299.2 540.173C1313.92 536.333 1328.64 528.653 1344.64 516.493V576.013H1345.28Z" fill="white"/>
<path d="M1639.04 447.368C1639.04 417.288 1632 392.968 1617.92 375.688C1603.84 357.768 1584 348.808 1558.4 348.168C1532.8 348.808 1512.96 357.768 1498.88 375.688C1484.8 393.608 1477.76 417.288 1477.76 447.368C1477.76 477.448 1484.8 501.128 1498.88 519.048C1512.96 536.968 1532.8 545.928 1558.4 546.568C1584 545.928 1603.84 536.968 1617.92 519.048C1631.36 501.768 1638.4 478.088 1639.04 447.368ZM1704.32 447.368C1704.32 478.088 1697.92 504.328 1685.76 526.728C1673.6 549.128 1656.96 567.048 1635.2 579.208C1613.44 591.368 1587.84 597.768 1558.4 598.408C1528.96 598.408 1503.36 592.008 1481.6 579.208C1459.84 566.408 1442.56 549.128 1430.4 526.728C1418.24 504.328 1412.48 477.448 1411.84 447.368C1412.48 401.288 1425.92 364.808 1452.16 337.928C1478.4 311.048 1513.6 296.968 1558.4 296.328C1602.56 296.968 1638.4 310.408 1664.64 337.928C1690.24 364.808 1703.68 401.288 1704.32 447.368Z" fill="white"/>
<path d="M1974.4 509.453C1974.4 527.373 1969.28 542.733 1960.32 556.173C1951.36 569.613 1938.56 579.853 1923.2 586.893C1907.84 593.933 1889.92 597.773 1870.72 598.413C1856.64 598.413 1842.56 597.773 1827.84 596.493C1813.76 595.213 1799.68 592.013 1786.24 587.533L1780.48 524.813C1792 531.853 1804.8 537.613 1818.88 542.093C1833.6 546.573 1849.6 549.133 1868.16 549.133C1880.32 549.133 1890.56 545.293 1898.24 538.893C1905.92 532.493 1910.4 524.173 1910.4 515.213C1910.4 506.893 1907.84 499.853 1902.72 494.733C1897.6 489.613 1890.56 485.133 1880.96 480.653L1841.92 462.733C1821.44 453.133 1806.72 442.253 1797.76 428.813C1788.8 416.013 1784.32 401.293 1784.32 385.293C1784.96 357.773 1795.2 336.013 1815.04 320.653C1834.88 305.293 1860.48 296.973 1892.48 296.973C1905.92 296.973 1919.36 298.893 1932.8 302.093C1946.24 305.293 1957.12 309.133 1965.44 313.613V372.493C1950.72 360.973 1937.92 353.933 1926.4 350.093C1915.52 346.253 1904 344.973 1892.48 344.973C1879.04 344.973 1868.16 348.173 1859.84 353.933C1851.52 359.693 1847.04 367.373 1847.04 377.613C1847.04 385.933 1850.24 392.973 1856 399.373C1861.76 405.133 1868.8 410.253 1877.76 414.093L1922.56 434.573C1936.64 440.973 1948.8 449.933 1958.4 462.733C1968.64 476.173 1973.76 491.533 1974.4 509.453Z" fill="white"/>
<path d="M2259.2 542.085L2240.64 592.645H2074.24V301.445H2252.8L2235.52 351.365H2136.96V421.125H2232.96L2216.32 469.765H2136.96V542.085H2259.2Z" fill="white"/>
<path d="M2601.6 592.645H2567.04L2418.56 408.965V592.645H2362.88V339.205L2332.16 301.445H2412.16L2545.92 469.125V301.445H2601.6V592.645Z" fill="white"/>
<path d="M2904.32 301.445L2887.68 353.925H2814.08V592.645H2751.36V353.925H2673.28V301.445H2904.32Z" fill="white"/>
<path d="M3037.44 301.445H2974.72V592.645H3037.44V301.445Z" fill="white"/>
<path d="M3396.48 592.645H3361.92L3213.44 408.965V592.645H3157.76V339.205L3127.04 301.445H3206.4L3340.16 469.125V301.445H3396.48V592.645Z" fill="white"/>
<path d="M3704.96 447.368C3704.96 417.288 3697.92 392.968 3683.84 375.688C3669.76 357.768 3649.92 348.808 3624.32 348.168C3598.72 348.808 3578.88 357.768 3564.8 375.688C3550.72 393.608 3543.68 417.288 3543.68 447.368C3543.68 477.448 3550.72 501.128 3564.8 519.048C3578.88 536.968 3598.72 545.928 3624.32 546.568C3649.92 545.928 3669.76 536.968 3683.84 519.048C3697.92 501.768 3704.96 478.088 3704.96 447.368ZM3770.88 447.368C3770.88 478.088 3764.48 504.328 3752.32 526.728C3740.16 549.128 3723.52 567.048 3701.76 579.208C3680 591.368 3654.4 597.768 3624.96 598.408C3595.52 598.408 3569.92 592.008 3548.16 579.208C3526.4 566.408 3509.12 549.128 3497.6 526.728C3485.44 504.328 3479.68 477.448 3479.04 447.368C3479.68 401.288 3493.12 364.808 3519.36 337.928C3545.6 311.048 3580.8 296.968 3625.6 296.328C3669.76 296.968 3705.6 310.408 3731.84 337.928C3756.8 364.808 3770.24 401.288 3770.88 447.368Z" fill="white"/>
<path d="M3820.8 325.118C3820.8 328.958 3818.88 330.238 3814.4 330.238H3809.92V320.638H3814.4C3816.96 320.638 3818.24 320.638 3818.88 321.278C3820.16 321.918 3820.8 323.198 3820.8 325.118ZM3827.84 345.598L3818.24 333.438C3823.36 332.798 3825.92 329.598 3825.92 325.118C3825.92 319.358 3822.72 316.798 3815.04 316.798H3804.8V345.598H3809.92V333.438H3813.12L3822.08 345.598H3827.84ZM3836.16 330.878C3836.16 342.398 3826.56 351.998 3815.04 351.998C3803.52 351.998 3793.92 342.398 3793.92 330.878C3793.92 319.358 3803.52 309.758 3815.04 309.758C3826.56 310.398 3836.16 319.358 3836.16 330.878ZM3840 330.878C3840 316.798 3828.48 305.918 3815.04 305.918C3800.96 305.918 3790.08 317.438 3790.08 330.878C3790.08 344.958 3801.6 355.838 3815.04 355.838C3829.12 356.478 3840 344.958 3840 330.878Z" fill="white"/>
<path d="M885.12 0V885.76H0V0H885.12ZM299.521 611.21H585.602V503.05H415.361V382.73H549.762L585.602 274.57H299.521V611.21Z" fill="white"/>
</svg>
