<svg width="253" height="30" viewBox="0 0 253 30" fill="none" xmlns="http://www.w3.org/2000/svg">
<mask id="mask0_633_101" style="mask-type:luminance" maskUnits="userSpaceOnUse" x="0" y="1" width="24" height="28">
<path d="M7.49051 3.43255C5.26019 4.58414 3.50605 6.16323 2.23475 8.17187C0.967877 10.1805 0.316721 12.4898 0.292358 15.0998C0.310077 17.6301 0.925795 19.8719 2.14837 21.8294C3.36652 23.7869 5.09186 25.325 7.32218 26.4419C9.54586 27.5628 12.1793 28.1375 15.2136 28.156C16.8946 28.1703 18.4583 28.0353 19.8935 27.751C21.3287 27.4666 22.631 26.9512 23.796 26.2066V20.8741C22.312 21.9194 20.8813 22.6128 19.5059 22.9523C18.1283 23.2919 16.6554 23.4473 15.0829 23.4228C13.4306 23.4003 11.96 22.9932 10.6732 22.2078C9.3886 21.4182 8.37643 20.3771 7.63447 19.0762C6.89472 17.7712 6.5182 16.3414 6.50713 14.7787C6.5625 12.2137 7.42628 10.1703 9.10068 8.64232C10.7751 7.12255 12.9124 6.33914 15.517 6.30232C17.1205 6.29619 18.569 6.48641 19.8492 6.86891C21.1338 7.25346 22.4494 7.85891 23.796 8.68937V3.31596C21.6454 2.23187 18.7861 1.69187 15.2136 1.68164C12.2989 1.70619 9.72526 2.28914 7.49051 3.43255Z" fill="white"/>
</mask>
<g mask="url(#mask0_633_101)">
<path fill-rule="evenodd" clip-rule="evenodd" d="M-139.533 106.364H2129.19V-143.388H-139.533V106.364Z" fill="white"/>
</g>
<mask id="mask1_633_101" style="mask-type:luminance" maskUnits="userSpaceOnUse" x="0" y="1" width="24" height="28">
<path d="M7.49051 3.43255C5.26019 4.58414 3.50605 6.16323 2.23475 8.17187C0.967877 10.1805 0.316721 12.4898 0.292358 15.0998C0.310077 17.6301 0.925795 19.8719 2.14837 21.8294C3.36652 23.7869 5.09186 25.325 7.32218 26.4419C9.54586 27.5628 12.1793 28.1375 15.2136 28.156C16.8946 28.1703 18.4583 28.0353 19.8935 27.751C21.3287 27.4666 22.631 26.9512 23.796 26.2066V20.8741C22.312 21.9194 20.8813 22.6128 19.5059 22.9523C18.1283 23.2919 16.6554 23.4473 15.0829 23.4228C13.4306 23.4003 11.96 22.9932 10.6732 22.2078C9.3886 21.4182 8.37643 20.3771 7.63447 19.0762C6.89472 17.7712 6.5182 16.3414 6.50713 14.7787C6.5625 12.2137 7.42628 10.1703 9.10068 8.64232C10.7751 7.12255 12.9124 6.33914 15.517 6.30232C17.1205 6.29619 18.569 6.48641 19.8492 6.86891C21.1338 7.25346 22.4494 7.85891 23.796 8.68937V3.31596C21.6454 2.23187 18.7861 1.69187 15.2136 1.68164C12.2989 1.70619 9.72526 2.28914 7.49051 3.43255Z" fill="white"/>
</mask>
<g mask="url(#mask1_633_101)">
<path fill-rule="evenodd" clip-rule="evenodd" d="M-8.78174 36.5406H32.8701V-6.69824H-8.78174V36.5406Z" fill="white"/>
</g>
<mask id="mask2_633_101" style="mask-type:luminance" maskUnits="userSpaceOnUse" x="29" y="1" width="28" height="28">
<path d="M33.0329 5.31018C30.6555 7.67678 29.4347 10.8861 29.3833 14.9402C29.3983 17.6095 29.9573 19.9352 31.0625 21.9172C32.1655 23.8952 33.714 25.4334 35.708 26.5297C37.702 27.6261 40.043 28.1804 42.7289 28.1968C45.4125 28.1804 47.7514 27.6261 49.7432 26.5297C51.7394 25.4334 53.2879 23.8952 54.3909 21.9172C55.494 19.9352 56.0573 17.6095 56.0723 14.9402C56.0187 10.8861 54.7893 7.67678 52.4012 5.31018C50.011 2.94564 46.7854 1.73473 42.7289 1.68359C38.6509 1.73473 35.4189 2.94564 33.0329 5.31018ZM37.3058 21.2545C36.04 19.6918 35.4018 17.585 35.3868 14.9402C35.4018 12.2934 36.04 10.1886 37.3058 8.62382C38.5673 7.05905 40.3772 6.25928 42.7289 6.22041C45.0548 6.25928 46.8625 7.05905 48.1305 8.62382C49.4048 10.1886 50.0495 12.2934 50.0667 14.9402C50.0495 17.585 49.4048 19.6918 48.1305 21.2545C46.8625 22.8213 45.0548 23.6231 42.7289 23.66C40.3772 23.6231 38.5673 22.8213 37.3058 21.2545Z" fill="white"/>
</mask>
<g mask="url(#mask2_633_101)">
<path fill-rule="evenodd" clip-rule="evenodd" d="M-134.666 106.363H2059.26V-143.389H-134.666V106.363Z" fill="white"/>
</g>
<mask id="mask3_633_101" style="mask-type:luminance" maskUnits="userSpaceOnUse" x="29" y="1" width="28" height="28">
<path d="M33.0329 5.31018C30.6555 7.67678 29.4347 10.8861 29.3833 14.9402C29.3983 17.6095 29.9573 19.9352 31.0625 21.9172C32.1655 23.8952 33.714 25.4334 35.708 26.5297C37.702 27.6261 40.043 28.1804 42.7289 28.1968C45.4125 28.1804 47.7514 27.6261 49.7432 26.5297C51.7394 25.4334 53.2879 23.8952 54.3909 21.9172C55.494 19.9352 56.0573 17.6095 56.0723 14.9402C56.0187 10.8861 54.7893 7.67678 52.4012 5.31018C50.011 2.94564 46.7854 1.73473 42.7289 1.68359C38.6509 1.73473 35.4189 2.94564 33.0329 5.31018ZM37.3058 21.2545C36.04 19.6918 35.4018 17.585 35.3868 14.9402C35.4018 12.2934 36.04 10.1886 37.3058 8.62382C38.5673 7.05905 40.3772 6.25928 42.7289 6.22041C45.0548 6.25928 46.8625 7.05905 48.1305 8.62382C49.4048 10.1886 50.0495 12.2934 50.0667 14.9402C50.0495 17.585 49.4048 19.6918 48.1305 21.2545C46.8625 22.8213 45.0548 23.6231 42.7289 23.66C40.3772 23.6231 38.5673 22.8213 37.3058 21.2545Z" fill="white"/>
</mask>
<g mask="url(#mask3_633_101)">
<path fill-rule="evenodd" clip-rule="evenodd" d="M20.6062 36.5773H64.8472V-6.69629H20.6062V36.5773Z" fill="white"/>
</g>
<mask id="mask4_633_101" style="mask-type:luminance" maskUnits="userSpaceOnUse" x="64" y="1" width="18" height="28">
<path d="M67.4417 3.85208C65.6842 5.22049 64.7784 7.11254 64.7264 9.52413C64.7076 10.9416 65.1074 12.2119 65.9112 13.3389C66.717 14.4741 68.0226 15.458 69.8343 16.2925L73.2805 17.8859C74.1176 18.248 74.7568 18.6571 75.1983 19.1153C75.6439 19.5734 75.8688 20.1707 75.875 20.9112C75.85 21.7171 75.4835 22.4105 74.7818 22.9873C74.0759 23.5682 73.1826 23.8709 72.104 23.8975C70.5027 23.8873 69.0513 23.6807 67.7561 23.2859C66.4588 22.8912 65.3136 22.3757 64.3203 21.7498L64.8471 27.2419C66.0486 27.6509 67.2897 27.9128 68.5682 28.0334C69.8405 28.1562 71.1024 28.2094 72.3476 28.2012C74.0822 28.1889 75.6418 27.8616 77.0203 27.2091C78.4009 26.5648 79.4961 25.6546 80.3082 24.4887C81.1203 23.3228 81.5306 21.9584 81.5493 20.3957C81.5097 18.7757 81.035 17.4237 80.1396 16.3232C79.2359 15.2269 78.1697 14.4046 76.9307 13.8666L72.9556 12.0728C72.1685 11.7353 71.5209 11.3057 71.0191 10.78C70.5173 10.2523 70.2549 9.6264 70.2403 8.89004C70.2611 8.00231 70.6422 7.30481 71.3877 6.79958C72.1269 6.29026 73.0951 6.03254 74.2925 6.02435C75.319 5.99572 76.329 6.14094 77.3222 6.45594C78.3217 6.77094 79.4712 7.42344 80.7809 8.4114V3.2364C80.0313 2.86004 79.063 2.52867 77.8699 2.23208C76.6788 1.93549 75.4856 1.77799 74.2925 1.76367C71.4834 1.78617 69.1971 2.48163 67.4417 3.85208Z" fill="white"/>
</mask>
<g mask="url(#mask4_633_101)">
<path fill-rule="evenodd" clip-rule="evenodd" d="M-127.854 106.364H2005.13V-143.388H-127.854V106.364Z" fill="white"/>
</g>
<mask id="mask5_633_101" style="mask-type:luminance" maskUnits="userSpaceOnUse" x="64" y="1" width="18" height="28">
<path d="M67.4417 3.85208C65.6842 5.22049 64.7784 7.11254 64.7264 9.52413C64.7076 10.9416 65.1074 12.2119 65.9112 13.3389C66.717 14.4741 68.0226 15.458 69.8343 16.2925L73.2805 17.8859C74.1176 18.248 74.7568 18.6571 75.1983 19.1153C75.6439 19.5734 75.8688 20.1707 75.875 20.9112C75.85 21.7171 75.4835 22.4105 74.7818 22.9873C74.0759 23.5682 73.1826 23.8709 72.104 23.8975C70.5027 23.8873 69.0513 23.6807 67.7561 23.2859C66.4588 22.8912 65.3136 22.3757 64.3203 21.7498L64.8471 27.2419C66.0486 27.6509 67.2897 27.9128 68.5682 28.0334C69.8405 28.1562 71.1024 28.2094 72.3476 28.2012C74.0822 28.1889 75.6418 27.8616 77.0203 27.2091C78.4009 26.5648 79.4961 25.6546 80.3082 24.4887C81.1203 23.3228 81.5306 21.9584 81.5493 20.3957C81.5097 18.7757 81.035 17.4237 80.1396 16.3232C79.2359 15.2269 78.1697 14.4046 76.9307 13.8666L72.9556 12.0728C72.1685 11.7353 71.5209 11.3057 71.0191 10.78C70.5173 10.2523 70.2549 9.6264 70.2403 8.89004C70.2611 8.00231 70.6422 7.30481 71.3877 6.79958C72.1269 6.29026 73.0951 6.03254 74.2925 6.02435C75.319 5.99572 76.329 6.14094 77.3222 6.45594C78.3217 6.77094 79.4712 7.42344 80.7809 8.4114V3.2364C80.0313 2.86004 79.063 2.52867 77.8699 2.23208C76.6788 1.93549 75.4856 1.77799 74.2925 1.76367C71.4834 1.78617 69.1971 2.48163 67.4417 3.85208Z" fill="white"/>
</mask>
<g mask="url(#mask5_633_101)">
<path fill-rule="evenodd" clip-rule="evenodd" d="M55.7891 36.5818H90.0825V-6.61816H55.7891V36.5818Z" fill="white"/>
</g>
<mask id="mask6_633_101" style="mask-type:luminance" maskUnits="userSpaceOnUse" x="89" y="1" width="18" height="27">
<path d="M89.7994 1.86621V27.6699H104.555L106.179 23.1679H95.3529V16.7785H102.408L103.867 12.4376H95.3529V6.2484H104.111L105.608 1.86621H89.7994Z" fill="white"/>
</mask>
<g mask="url(#mask6_633_101)">
<path fill-rule="evenodd" clip-rule="evenodd" d="M-128.478 107.112H2004.51V-145.042H-128.478V107.112Z" fill="white"/>
</g>
<mask id="mask7_633_101" style="mask-type:luminance" maskUnits="userSpaceOnUse" x="89" y="1" width="18" height="27">
<path d="M89.7994 1.86621V27.6699H104.555L106.179 23.1679H95.3529V16.7785H102.408L103.867 12.4376H95.3529V6.2484H104.111L105.608 1.86621H89.7994Z" fill="white"/>
</mask>
<g mask="url(#mask7_633_101)">
<path fill-rule="evenodd" clip-rule="evenodd" d="M81.2682 36.1327H114.71V-6.59473H81.2682V36.1327Z" fill="white"/>
</g>
<mask id="mask8_633_101" style="mask-type:luminance" maskUnits="userSpaceOnUse" x="114" y="1" width="26" height="27">
<path d="M133.885 1.86621V16.7372L121.548 1.86621H114.218L117.042 5.20345V27.6699H122.18V11.3513L135.863 27.6699H139.064V1.86621H133.885Z" fill="white"/>
</mask>
<g mask="url(#mask8_633_101)">
<path fill-rule="evenodd" clip-rule="evenodd" d="M-136.231 107.112H2078.79V-145.042H-136.231V107.112Z" fill="white"/>
</g>
<mask id="mask9_633_101" style="mask-type:luminance" maskUnits="userSpaceOnUse" x="114" y="1" width="26" height="27">
<path d="M133.885 1.86621V16.7372L121.548 1.86621H114.218L117.042 5.20345V27.6699H122.18V11.3513L135.863 27.6699H139.064V1.86621H133.885Z" fill="white"/>
</mask>
<g mask="url(#mask9_633_101)">
<path fill-rule="evenodd" clip-rule="evenodd" d="M105.358 36.1327H147.923V-6.59473H105.358V36.1327Z" fill="white"/>
</g>
<mask id="mask10_633_101" style="mask-type:luminance" maskUnits="userSpaceOnUse" x="145" y="1" width="22" height="27">
<path d="M145.083 1.86621V6.49002H152.459V27.6699H158.412V6.49002H165.309L166.906 1.86621H145.083Z" fill="white"/>
</mask>
<g mask="url(#mask10_633_101)">
<path fill-rule="evenodd" clip-rule="evenodd" d="M-143.622 107.112H2125.1V-145.042H-143.622V107.112Z" fill="white"/>
</g>
<mask id="mask11_633_101" style="mask-type:luminance" maskUnits="userSpaceOnUse" x="145" y="1" width="22" height="27">
<path d="M145.083 1.86621V6.49002H152.459V27.6699H158.412V6.49002H165.309L166.906 1.86621H145.083Z" fill="white"/>
</mask>
<g mask="url(#mask11_633_101)">
<path fill-rule="evenodd" clip-rule="evenodd" d="M136.009 36.1327H175.982V-6.59473H136.009V36.1327Z" fill="white"/>
</g>
<mask id="mask12_633_101" style="mask-type:luminance" maskUnits="userSpaceOnUse" x="172" y="1" width="6" height="27">
<path d="M172.795 1.86621H177.797V27.6699H172.795V1.86621Z" fill="white"/>
</mask>
<g mask="url(#mask12_633_101)">
<path fill-rule="evenodd" clip-rule="evenodd" d="M-95.5778 107.112H1824.11V-145.042H-95.5778V107.112Z" fill="white"/>
</g>
<mask id="mask13_633_101" style="mask-type:luminance" maskUnits="userSpaceOnUse" x="172" y="1" width="6" height="27">
<path d="M172.795 1.86621H177.797V27.6699H172.795V1.86621Z" fill="white"/>
</mask>
<g mask="url(#mask13_633_101)">
<path fill-rule="evenodd" clip-rule="evenodd" d="M165.117 36.1327H185.473V-6.59473H165.117V36.1327Z" fill="white"/>
</g>
<mask id="mask14_633_101" style="mask-type:luminance" maskUnits="userSpaceOnUse" x="187" y="1" width="25" height="27">
<path d="M206.701 1.86621V16.7372L194.367 1.86621H187.038L189.86 5.20345V27.6699H194.996V11.3513L208.682 27.6699H211.884V1.86621H206.701Z" fill="white"/>
</mask>
<g mask="url(#mask14_633_101)">
<path fill-rule="evenodd" clip-rule="evenodd" d="M-136.663 107.112H2078.36V-145.042H-136.663V107.112Z" fill="white"/>
</g>
<mask id="mask15_633_101" style="mask-type:luminance" maskUnits="userSpaceOnUse" x="187" y="1" width="25" height="27">
<path d="M206.701 1.86621V16.7372L194.367 1.86621H187.038L189.86 5.20345V27.6699H194.996V11.3513L208.682 27.6699H211.884V1.86621H206.701Z" fill="white"/>
</mask>
<g mask="url(#mask15_633_101)">
<path fill-rule="evenodd" clip-rule="evenodd" d="M178.177 36.1327H220.744V-6.59473H178.177V36.1327Z" fill="white"/>
</g>
<mask id="mask16_633_101" style="mask-type:luminance" maskUnits="userSpaceOnUse" x="218" y="1" width="28" height="28">
<path d="M222.512 5.31018C220.128 7.67678 218.909 10.8861 218.855 14.9402C218.873 17.6095 219.432 19.9352 220.539 21.9172C221.64 23.8952 223.188 25.4334 225.182 26.5297C227.176 27.6261 229.517 28.1804 232.201 28.1968C234.887 28.1804 237.224 27.6261 239.218 26.5297C241.214 25.4334 242.762 23.8952 243.865 21.9172C244.97 19.9352 245.529 17.6095 245.547 14.9402C245.491 10.8861 244.266 7.67678 241.876 5.31018C239.485 2.94564 236.258 1.73473 232.201 1.68359C228.123 1.73473 224.895 2.94564 222.512 5.31018ZM226.782 21.2545C225.514 19.6918 224.876 17.585 224.861 14.9402C224.876 12.2934 225.514 10.1886 226.782 8.62382C228.042 7.05905 229.851 6.25928 232.201 6.22041C234.531 6.25928 236.333 7.05905 237.605 8.62382C238.879 10.1886 239.524 12.2934 239.541 14.9402C239.524 17.585 238.879 19.6918 237.605 21.2545C236.333 22.8213 234.531 23.6231 232.201 23.66C229.851 23.6231 228.042 22.8213 226.782 21.2545Z" fill="white"/>
</mask>
<g mask="url(#mask16_633_101)">
<path fill-rule="evenodd" clip-rule="evenodd" d="M-133.862 106.363H2060.07V-143.389H-133.862V106.363Z" fill="white"/>
</g>
<mask id="mask17_633_101" style="mask-type:luminance" maskUnits="userSpaceOnUse" x="218" y="1" width="28" height="28">
<path d="M222.512 5.31018C220.128 7.67678 218.909 10.8861 218.855 14.9402C218.873 17.6095 219.432 19.9352 220.539 21.9172C221.64 23.8952 223.188 25.4334 225.182 26.5297C227.176 27.6261 229.517 28.1804 232.201 28.1968C234.887 28.1804 237.224 27.6261 239.218 26.5297C241.214 25.4334 242.762 23.8952 243.865 21.9172C244.97 19.9352 245.529 17.6095 245.547 14.9402C245.491 10.8861 244.266 7.67678 241.876 5.31018C239.485 2.94564 236.258 1.73473 232.201 1.68359C228.123 1.73473 224.895 2.94564 222.512 5.31018ZM226.782 21.2545C225.514 19.6918 224.876 17.585 224.861 14.9402C224.876 12.2934 225.514 10.1886 226.782 8.62382C228.042 7.05905 229.851 6.25928 232.201 6.22041C234.531 6.25928 236.333 7.05905 237.605 8.62382C238.879 10.1886 239.524 12.2934 239.541 14.9402C239.524 17.585 238.879 19.6918 237.605 21.2545C236.333 22.8213 234.531 23.6231 232.201 23.66C229.851 23.6231 228.042 22.8213 226.782 21.2545Z" fill="white"/>
</mask>
<g mask="url(#mask17_633_101)">
<path fill-rule="evenodd" clip-rule="evenodd" d="M210.081 36.5773H254.322V-6.69629H210.081V36.5773Z" fill="white"/>
</g>
<mask id="mask18_633_101" style="mask-type:luminance" maskUnits="userSpaceOnUse" x="247" y="2" width="6" height="5">
<path d="M247.771 4.41571C247.771 5.48062 248.891 6.33971 250.273 6.33971C251.646 6.33971 252.766 5.48062 252.766 4.41571C252.766 3.35795 251.646 2.49707 250.273 2.49707C248.891 2.49707 247.771 3.35795 247.771 4.41571ZM248.16 4.41571C248.16 3.52082 249.104 2.79417 250.273 2.79417C251.43 2.79417 252.374 3.52082 252.374 4.41571C252.374 5.31417 251.43 6.03903 250.273 6.03903C249.104 6.03903 248.16 5.31417 248.16 4.41571ZM249.226 3.31679V5.52716H249.723V4.61079H250.029L250.91 5.52716H251.524L250.561 4.58395C251.049 4.54457 251.337 4.30295 251.337 3.93784C251.337 3.50471 251.006 3.31679 250.259 3.31679H249.226ZM249.723 3.6121H250.184C250.425 3.6121 250.568 3.62821 250.662 3.66042C250.77 3.70517 250.842 3.8215 250.842 3.94858C250.842 4.21883 250.632 4.34591 250.184 4.34591H249.723V3.6121Z" fill="white"/>
</mask>
<g mask="url(#mask18_633_101)">
<path fill-rule="evenodd" clip-rule="evenodd" d="M-169.135 93.0682H2230.48V-125.465H-169.135V93.0682Z" fill="white"/>
</g>
<mask id="mask19_633_101" style="mask-type:luminance" maskUnits="userSpaceOnUse" x="247" y="2" width="6" height="5">
<path d="M247.771 4.41571C247.771 5.48062 248.891 6.33971 250.273 6.33971C251.646 6.33971 252.766 5.48062 252.766 4.41571C252.766 3.35795 251.646 2.49707 250.273 2.49707C248.891 2.49707 247.771 3.35795 247.771 4.41571ZM248.16 4.41571C248.16 3.52082 249.104 2.79417 250.273 2.79417C251.43 2.79417 252.374 3.52082 252.374 4.41571C252.374 5.31417 251.43 6.03903 250.273 6.03903C249.104 6.03903 248.16 5.31417 248.16 4.41571ZM249.226 3.31679V5.52716H249.723V4.61079H250.029L250.91 5.52716H251.524L250.561 4.58395C251.049 4.54457 251.337 4.30295 251.337 3.93784C251.337 3.50471 251.006 3.31679 250.259 3.31679H249.226ZM249.723 3.6121H250.184C250.425 3.6121 250.568 3.62821 250.662 3.66042C250.77 3.70517 250.842 3.8215 250.842 3.94858C250.842 4.21883 250.632 4.34591 250.184 4.34591H249.723V3.6121Z" fill="white"/>
</mask>
<g mask="url(#mask19_633_101)">
<path fill-rule="evenodd" clip-rule="evenodd" d="M238.174 13.6737H262.366V-4.83789H238.174V13.6737Z" fill="white"/>
</g>
</svg>
