<svg xmlns="http://www.w3.org/2000/svg" width="322" height="47.046" viewBox="0 0 322 47.046">
  <g id="Logo_Dekton" data-name="Logo Dekton" transform="translate(-6.83 -6.354)">
    <g id="Grupo_326" data-name="Grupo 326" transform="translate(6.831 6.354)">
      <path id="Trazado_1" data-name="Trazado 1" d="M13.06.279V2.907l-.507.578H-13.482l-.507-.578V.279l.507-.578H12.561Z" transform="translate(13.989 0.299)" fill="#fff"/>
    </g>
    <g id="Grupo_327" data-name="Grupo 327" transform="translate(6.83 17.174)">
      <path id="Trazado_2" data-name="Trazado 2" d="M19.58.279V2.907l-.507.578H-20.465l-.507-.578V.279l.507-.578H19.081Z" transform="translate(20.972 0.299)" fill="#fff"/>
    </g>
    <g id="Grupo_328" data-name="Grupo 328" transform="translate(6.831 49.616)">
      <path id="Trazado_3" data-name="Trazado 3" d="M13.06.279V2.907l-.507.578H-13.482l-.507-.578V.279l.507-.578H12.561Z" transform="translate(13.989 0.299)" fill="#fff"/>
    </g>
    <g id="Grupo_329" data-name="Grupo 329" transform="translate(6.83 38.802)">
      <path id="Trazado_4" data-name="Trazado 4" d="M19.58.279V2.907l-.507.578H-20.465l-.507-.578V.279l.507-.578H19.081Z" transform="translate(20.972 0.299)" fill="#fff"/>
    </g>
    <g id="Grupo_330" data-name="Grupo 330" transform="translate(6.83 27.988)">
      <path id="Trazado_5" data-name="Trazado 5" d="M22.181.279V2.907l-.507.578H-23.251l-.507-.578V.279l.507-.578H21.682Z" transform="translate(23.758 0.299)" fill="#fff"/>
    </g>
    <g id="Grupo_331" data-name="Grupo 331" transform="translate(195.354 11.402)">
      <path id="Trazado_6" data-name="Trazado 6" d="M6.047,17.975l-.677-.768V-12.549H-5.769l-.708-.8.031-5.182.673-.719h29.52l.673.768v5.169l-.673.768H12.6V17.263l-.667.712Z" transform="translate(6.477 19.253)" fill="#fff"/>
    </g>
    <g id="Grupo_962" data-name="Grupo 962" transform="translate(77.234 10.778)">
      <g id="Grupo_332" data-name="Grupo 332" transform="translate(0 0.633)">
        <path id="Trazado_7" data-name="Trazado 7" d="M3.456,14.786h6.82c7.336,0,12.265-4.79,12.265-11.917V2.775C22.541-4.3,17.5-9.244,10.276-9.244H3.456Zm-6.485,6.6-.673-.77v-35.69l.673-.76H10.276c11.439,0,19.742,7.783,19.742,18.5v.11c0,10.782-8.3,18.607-19.742,18.607Z" transform="translate(3.702 15.838)" fill="#fff"/>
      </g>
      <g id="Grupo_333" data-name="Grupo 333" transform="translate(80.291 0.63)">
        <path id="Trazado_8" data-name="Trazado 8" d="M12.214,17.972-.352,1.962-5.878,7.293V17.2l-.677.768h-5.82l-.708-.8.031-35.656.675-.762h5.822l.677.77V-1.465L11.8-19.25h9.011v.947L4.685-2.793l16.153,20.05-.023.715Z" transform="translate(13.083 19.25)" fill="#fff"/>
      </g>
      <g id="Grupo_334" data-name="Grupo 334" transform="translate(152.664)">
        <path id="Trazado_9" data-name="Trazado 9" d="M9.368,3.216C2.575,3.216-2.549,8.58-2.549,15.692V15.8c0,7.135,5.163,12.516,12.012,12.516,6.791,0,11.913-5.339,11.913-12.421V15.8c0-7.174-5.163-12.584-12.008-12.584m0,31.816c-11.06,0-19.4-8.226-19.4-19.137V15.8A19.167,19.167,0,0,1,9.463-3.445c11.058,0,19.4,8.227,19.4,19.137V15.8A19.156,19.156,0,0,1,9.368,35.032" transform="translate(10.034 3.445)" fill="#fff"/>
      </g>
      <g id="Grupo_335" data-name="Grupo 335" transform="translate(200.355 0.624)">
        <path id="Trazado_10" data-name="Trazado 10" d="M12.846,17.975-6.664-7.278V17.207l-.677.768h-5.714l-.706-.8.033-35.7.671-.719h5.849L11.738,5.269V-18.485l.677-.768h5.72l.675.768V17.207l-.675.768Z" transform="translate(13.76 19.253)" fill="#fff"/>
      </g>
      <g id="Grupo_336" data-name="Grupo 336" transform="translate(54.128 15.959)">
        <path id="Trazado_11" data-name="Trazado 11" d="M.323,3.143l-.669-.762V-2.605l.669-.762H9.894l.677.762V2.382l-.677.762Z" transform="translate(0.346 3.367)" fill="#fff"/>
      </g>
      <g id="Grupo_337" data-name="Grupo 337" transform="translate(42.405 0.63)">
        <path id="Trazado_12" data-name="Trazado 12" d="M.327,17.972-.35,17.2V-18.488l.677-.762H27.086l.673.77v4.956l-.673.77H6.806V11.473H27.275l.677.768V17.2l-.677.768Z" transform="translate(0.35 19.25)" fill="#fff"/>
      </g>
      <g id="Grupo_356" data-name="Grupo 356" transform="translate(242.106 0.624)">
        <path id="Trazado_32" data-name="Trazado 32" d="M1.814,2.228H2.935c.723,0,1.054-.331,1.054-.857S3.659.514,2.935.514H1.814ZM4.78,4.8H4.121L3.067,2.819H1.814V4.8H1.222V-.079H2.935a1.508,1.508,0,0,1,1.645,1.45A1.446,1.446,0,0,1,3.659,2.69ZM6.955,2.359A4.055,4.055,0,0,0,2.8-1.792,4.053,4.053,0,0,0-1.349,2.359,4.055,4.055,0,0,0,2.8,6.512,4.057,4.057,0,0,0,6.955,2.359m.592,0A4.725,4.725,0,0,1,2.8,7.1,4.725,4.725,0,0,1-1.943,2.359,4.726,4.726,0,0,1,2.8-2.386,4.726,4.726,0,0,1,7.547,2.359" transform="translate(1.943 2.386)" fill="#fff"/>
      </g>
    </g>
  </g>
</svg>
