<svg width="782" height="198" viewBox="0 0 782 198" fill="none" xmlns="http://www.w3.org/2000/svg">
<g clip-path="url(#clip0_594_15)">
<path d="M235.126 117C253.626 116.9 272.126 108.9 272.126 89.1C272.126 75.8 260.726 68.5 248.526 63.2L247.526 62.8C245.726 62 243.926 61.3 242.226 60.6C240.826 60.1 239.426 59.5 237.926 58.9L237.026 58.6L236.126 58.3C226.726 54.5 217.126 49.7 217.126 39.6C217.126 30.8 225.226 25.6 234.526 25.6C246.426 25.6 256.326 32.2 262.926 39.3L273.026 29.6C263.626 19 251.526 13 236.526 13C215.126 13 202.126 27.2 202.126 40.9C202.126 58.3 218.026 65 231.326 70.6C247.526 77.4 256.926 81.1 256.926 90C256.926 100.1 247.026 104.2 235.126 104.4C224.126 104.4 213.026 98 207.126 90.6L197.026 100.7C206.626 111.1 221.526 117.1 235.126 117ZM348.826 116.3V26.3H380.626V13.7H301.826V26.3H333.626V116.3H348.826ZM427.826 116.3V86.5H451.226L471.426 116.3H488.826L466.726 83.7C479.726 78.2 488.826 65.6 488.826 50C488.826 29.3 472.626 13.7 452.526 13.6H409.826V22.7L412.626 26.9V116.3H427.826ZM452.426 73.9H427.926V26.3H452.426C464.126 26.3 473.726 36.3 473.726 50.1C473.626 64 464.026 73.9 452.426 73.9ZM571.726 117C600.526 117 623.926 94.8 623.926 65C623.926 35.2 600.526 13 571.726 13C542.926 13 519.526 35.2 519.526 65C519.526 94.8 542.926 117 571.726 117ZM571.726 104.4C550.026 104.4 534.726 85.9 534.726 65C534.726 44.2 550.126 25.6 571.726 25.6C593.426 25.6 608.726 44.2 608.726 65C608.726 85.9 593.526 104.4 571.726 104.4ZM671.126 116.3V13.7H650.326V24.2H656.026L655.926 116.4H671.126V116.3ZM750.226 116.3V26.3H782.026V13.7H703.226V26.3H735.026V116.3H750.226Z" fill="white"/>
<path d="M142.026 0V113.7H122.026V18.1H71.7261V0H142.026ZM97.1261 44.9V62.6H19.5261V109.3H80.9261V127H2.02612V44.9H97.1261Z" fill="white"/>
<path d="M10.1261 193.4C15.2261 193.4 19.3261 190.6 19.3261 185.9C19.3261 181.8 16.2261 180.4 13.1261 179.5L12.7261 179.4C12.6261 179.4 12.6261 179.4 12.5261 179.3L12.1261 179.2L11.7261 179.1C11.4261 179 11.1261 179 10.9261 178.9C10.6261 178.8 10.3261 178.7 10.0261 178.7L9.62607 178.6C6.92607 177.9 4.42607 177.1 4.42607 174.4C4.42607 172.2 6.42607 170.1 9.82607 170.1C12.7261 170.1 14.6261 171.6 15.4261 174.3L18.5261 173.4C17.3261 169.2 14.2261 167 9.72607 167C4.72607 167 0.926074 170.1 0.926074 174.3C0.926074 178.7 4.32607 180.2 7.62607 181.1L8.02607 181.2L8.42607 181.3C8.62607 181.4 8.82607 181.4 9.02607 181.5L9.22607 181.6L9.62607 181.7C9.72607 181.7 9.72607 181.7 9.82607 181.8L10.2261 181.9C13.0261 182.6 15.6261 183.2 15.6261 185.9C15.6261 188.5 13.2261 190.2 9.92607 190.2C6.82607 190.2 4.22607 188.7 3.32607 185.7L0.226074 186.7C1.42607 191 5.42607 193.4 10.1261 193.4ZM41.1261 193.4C46.8261 193.4 51.4261 189.4 51.4261 183.3V167.6H48.0261V182.7C48.0261 187 45.2261 190.2 41.1261 190.2C37.0261 190.2 34.2261 187 34.2261 182.7V167.6H30.7261V183.3C30.8261 189.4 35.4261 193.4 41.1261 193.4ZM67.7261 193V183.7H74.1261C78.6261 183.7 82.4261 180.8 82.4261 175.6C82.4261 170.4 78.6261 167.5 74.1261 167.5H64.3261V193H67.7261ZM73.9261 180.7H67.7261V170.5H73.9261C77.0261 170.5 79.1261 172.5 79.1261 175.6C79.1261 178.7 77.0261 180.7 73.9261 180.7ZM111.426 193V189.9H97.7261V181.7H111.126V178.7H97.7261V170.5H111.326V167.4H94.3261V193H111.426ZM127.126 193V183H133.726L138.826 193H142.626L136.926 182.6C140.026 181.6 142.226 179.1 142.226 175.3C142.226 170.4 138.426 167.5 133.926 167.5H123.726V193H127.126ZM133.626 180.1H127.126V170.6H133.626C136.726 170.6 138.826 172.5 138.826 175.4C138.826 178.2 136.626 180.1 133.626 180.1ZM157.626 193V182H171.026V179H157.626V170.6H171.226V167.5H154.226V193H157.626ZM186.826 193V167.5H183.426V193H186.826ZM211.926 193.4C216.926 193.4 221.226 190.6 223.326 186.4L220.226 184.8C218.626 187.8 215.626 189.9 211.926 189.9C206.626 189.9 202.526 185.6 202.526 180.3C202.526 175 206.626 170.7 211.926 170.7C215.526 170.7 218.626 172.7 220.226 175.7L223.326 174.1C221.226 170 216.926 167.2 211.926 167.2C204.626 167.2 199.126 173.1 199.126 180.3C199.126 187.5 204.626 193.4 211.926 193.4ZM238.726 193V167.5H235.226V193H238.726ZM269.226 193V189.9H255.626V181.7H269.026V178.7H255.626V170.5H269.226V167.4H252.126V193H269.226ZM289.926 193.4C295.026 193.4 299.126 190.6 299.126 185.9C299.126 181.8 296.026 180.4 292.926 179.5L292.526 179.4C291.926 179.2 291.226 179.1 290.626 178.9C290.326 178.8 290.026 178.7 289.726 178.7L289.326 178.6C286.626 177.9 284.126 177.1 284.126 174.4C284.126 172.2 286.126 170.1 289.526 170.1C292.426 170.1 294.326 171.6 295.126 174.3L298.226 173.4C297.026 169.2 293.926 167 289.426 167C284.426 167 280.626 170.1 280.626 174.3C280.626 178.7 284.026 180.2 287.326 181.1L287.726 181.2L288.126 181.3C288.326 181.4 288.526 181.4 288.726 181.5C289.026 181.6 289.326 181.6 289.626 181.7L290.026 181.8C292.826 182.5 295.426 183.1 295.426 185.8C295.426 188.4 293.026 190.1 289.726 190.1C286.626 190.1 284.026 188.6 283.126 185.6L279.826 186.5C281.326 191 285.226 193.4 289.926 193.4ZM329.626 193L331.626 187.9H344.726L346.826 193H350.526L339.926 167.5H336.326L325.926 193H329.626ZM343.526 184.8H332.726L338.026 171.5H338.126L343.526 184.8ZM365.226 193V183H371.826L376.926 193H380.726L375.026 182.6C378.126 181.6 380.326 179.1 380.326 175.3C380.326 170.4 376.526 167.5 372.026 167.5H361.826V193H365.226ZM371.626 180.1H365.226V170.6H371.726C374.826 170.6 376.926 172.5 376.926 175.4C376.926 178.2 374.726 180.1 371.626 180.1ZM416.326 197.5V194.4C412.226 194.8 407.826 194.7 403.826 193.4C411.026 193.3 416.526 187.5 416.526 180.3C416.526 173.1 410.926 167.2 403.626 167.2C396.326 167.2 390.826 173.1 390.826 180.3C390.826 184.4 392.626 188.2 395.626 190.5C400.726 195.4 408.426 197.3 416.326 197.5ZM403.626 189.9C398.326 189.9 394.226 185.6 394.226 180.3C394.226 175 398.326 170.7 403.626 170.7C408.926 170.7 413.026 175 413.026 180.3C413.126 185.6 409.026 189.9 403.626 189.9ZM438.726 193.4C444.426 193.4 449.026 189.4 449.026 183.3V167.6H445.626V182.7C445.626 187 442.826 190.2 438.726 190.2C434.626 190.2 431.826 187 431.826 182.7V167.6H428.326V183.3C428.326 189.4 432.926 193.4 438.726 193.4ZM465.326 193V167.5H461.926V193H465.326ZM488.926 193V170.6H497.626V167.5H476.726V170.6H485.426V193H488.926ZM526.226 193V189.9H512.526V181.7H525.926V178.7H512.526V170.5H526.226V167.4H509.126V193H526.226ZM550.126 193.4C555.126 193.4 559.426 190.6 561.526 186.4L558.426 184.8C556.826 187.8 553.826 189.9 550.126 189.9C544.826 189.9 540.726 185.6 540.726 180.3C540.726 175 544.826 170.7 550.126 170.7C553.726 170.7 556.826 172.7 558.426 175.7L561.526 174.1C559.426 170 555.126 167.2 550.126 167.2C542.826 167.2 537.326 173.1 537.326 180.3C537.326 187.5 542.826 193.4 550.126 193.4ZM583.126 193V170.6H591.826V167.5H570.926V170.6H579.626V193H583.126ZM614.826 164.3L617.826 159.4H615.126L612.526 164.3H614.826ZM613.626 193.4C620.826 193.4 626.426 187.5 626.426 180.3C626.426 173.1 620.826 167.2 613.626 167.2C606.326 167.2 600.726 173.1 600.726 180.3C600.726 187.5 606.326 193.4 613.626 193.4ZM613.626 190C608.226 190 604.126 185.7 604.126 180.2C604.126 174.7 608.226 170.4 613.626 170.4C619.026 170.4 623.026 174.7 623.026 180.2C623.026 185.7 619.026 190 613.626 190ZM642.126 193V173L655.826 193H659.726V167.5H656.226V187.5L642.526 167.5H638.626V193H642.126ZM676.526 193V167.5H673.126V193H676.526ZM701.526 193.4C706.526 193.4 710.826 190.6 712.926 186.4L709.826 184.8C708.226 187.8 705.226 189.9 701.526 189.9C696.226 189.9 692.126 185.6 692.126 180.3C692.126 175 696.226 170.7 701.526 170.7C705.126 170.7 708.226 172.7 709.826 175.7L712.926 174.1C710.826 170 706.526 167.2 701.526 167.2C694.226 167.2 688.726 173.1 688.726 180.3C688.726 187.5 694.326 193.4 701.526 193.4ZM725.926 193L727.926 187.9H741.026L743.126 193H746.826L736.226 167.5H732.626L722.226 193H725.926ZM739.926 184.8H729.126L734.426 171.5H734.526L739.926 184.8ZM766.326 193.4C771.426 193.4 775.526 190.6 775.526 185.9C775.526 180.8 770.726 179.9 767.026 178.9L766.626 178.8L766.226 178.7C763.326 177.9 760.626 177.2 760.626 174.4C760.626 172.2 762.626 170.1 766.026 170.1C768.926 170.1 770.826 171.6 771.626 174.3L774.726 173.4C773.526 169.2 770.426 167 765.926 167C760.926 167 757.126 170.1 757.126 174.3C757.126 179.4 761.526 180.5 765.326 181.5L765.526 181.6L765.926 181.7C766.026 181.7 766.026 181.7 766.126 181.8L766.526 181.9C769.326 182.6 771.926 183.2 771.926 185.9C771.926 188.5 769.526 190.2 766.226 190.2C763.126 190.2 760.526 188.7 759.626 185.7L756.326 186.6C757.726 191 761.626 193.4 766.326 193.4Z" fill="white"/>
<path d="M10.1261 193.4C15.2261 193.4 19.3261 190.6 19.3261 185.9C19.3261 181.8 16.2261 180.4 13.1261 179.5L12.7261 179.4C12.6261 179.4 12.6261 179.4 12.5261 179.3L12.1261 179.2L11.7261 179.1C11.4261 179 11.1261 179 10.9261 178.9C10.6261 178.8 10.3261 178.7 10.0261 178.7L9.62607 178.6C6.92607 177.9 4.42607 177.1 4.42607 174.4C4.42607 172.2 6.42607 170.1 9.82607 170.1C12.7261 170.1 14.6261 171.6 15.4261 174.3L18.5261 173.4C17.3261 169.2 14.2261 167 9.72607 167C4.72607 167 0.926074 170.1 0.926074 174.3C0.926074 178.7 4.32607 180.2 7.62607 181.1L8.02607 181.2L8.42607 181.3C8.62607 181.4 8.82607 181.4 9.02607 181.5L9.22607 181.6L9.62607 181.7C9.72607 181.7 9.72607 181.7 9.82607 181.8L10.2261 181.9C13.0261 182.6 15.6261 183.2 15.6261 185.9C15.6261 188.5 13.2261 190.2 9.92607 190.2C6.82607 190.2 4.22607 188.7 3.32607 185.7L0.226074 186.7C1.42607 191 5.42607 193.4 10.1261 193.4ZM41.1261 193.4C46.8261 193.4 51.4261 189.4 51.4261 183.3V167.6H48.0261V182.7C48.0261 187 45.2261 190.2 41.1261 190.2C37.0261 190.2 34.2261 187 34.2261 182.7V167.6H30.7261V183.3C30.8261 189.4 35.4261 193.4 41.1261 193.4ZM67.7261 193V183.7H74.1261C78.6261 183.7 82.4261 180.8 82.4261 175.6C82.4261 170.4 78.6261 167.5 74.1261 167.5H64.3261V193H67.7261ZM73.9261 180.7H67.7261V170.5H73.9261C77.0261 170.5 79.1261 172.5 79.1261 175.6C79.1261 178.7 77.0261 180.7 73.9261 180.7ZM111.426 193V189.9H97.7261V181.7H111.126V178.7H97.7261V170.5H111.326V167.4H94.3261V193H111.426ZM127.126 193V183H133.726L138.826 193H142.626L136.926 182.6C140.026 181.6 142.226 179.1 142.226 175.3C142.226 170.4 138.426 167.5 133.926 167.5H123.726V193H127.126ZM133.626 180.1H127.126V170.6H133.626C136.726 170.6 138.826 172.5 138.826 175.4C138.826 178.2 136.626 180.1 133.626 180.1ZM157.626 193V182H171.026V179H157.626V170.6H171.226V167.5H154.226V193H157.626ZM186.826 193V167.5H183.426V193H186.826ZM211.926 193.4C216.926 193.4 221.226 190.6 223.326 186.4L220.226 184.8C218.626 187.8 215.626 189.9 211.926 189.9C206.626 189.9 202.526 185.6 202.526 180.3C202.526 175 206.626 170.7 211.926 170.7C215.526 170.7 218.626 172.7 220.226 175.7L223.326 174.1C221.226 170 216.926 167.2 211.926 167.2C204.626 167.2 199.126 173.1 199.126 180.3C199.126 187.5 204.626 193.4 211.926 193.4ZM238.726 193V167.5H235.226V193H238.726ZM269.226 193V189.9H255.626V181.7H269.026V178.7H255.626V170.5H269.226V167.4H252.126V193H269.226ZM289.926 193.4C295.026 193.4 299.126 190.6 299.126 185.9C299.126 181.8 296.026 180.4 292.926 179.5L292.526 179.4C291.926 179.2 291.226 179.1 290.626 178.9C290.326 178.8 290.026 178.7 289.726 178.7L289.326 178.6C286.626 177.9 284.126 177.1 284.126 174.4C284.126 172.2 286.126 170.1 289.526 170.1C292.426 170.1 294.326 171.6 295.126 174.3L298.226 173.4C297.026 169.2 293.926 167 289.426 167C284.426 167 280.626 170.1 280.626 174.3C280.626 178.7 284.026 180.2 287.326 181.1L287.726 181.2L288.126 181.3C288.326 181.4 288.526 181.4 288.726 181.5C289.026 181.6 289.326 181.6 289.626 181.7L290.026 181.8C292.826 182.5 295.426 183.1 295.426 185.8C295.426 188.4 293.026 190.1 289.726 190.1C286.626 190.1 284.026 188.6 283.126 185.6L279.826 186.5C281.326 191 285.226 193.4 289.926 193.4ZM329.626 193L331.626 187.9H344.726L346.826 193H350.526L339.926 167.5H336.326L325.926 193H329.626ZM343.526 184.8H332.726L338.026 171.5H338.126L343.526 184.8ZM365.226 193V183H371.826L376.926 193H380.726L375.026 182.6C378.126 181.6 380.326 179.1 380.326 175.3C380.326 170.4 376.526 167.5 372.026 167.5H361.826V193H365.226ZM371.626 180.1H365.226V170.6H371.726C374.826 170.6 376.926 172.5 376.926 175.4C376.926 178.2 374.726 180.1 371.626 180.1ZM416.326 197.5V194.4C412.226 194.8 407.826 194.7 403.826 193.4C411.026 193.3 416.526 187.5 416.526 180.3C416.526 173.1 410.926 167.2 403.626 167.2C396.326 167.2 390.826 173.1 390.826 180.3C390.826 184.4 392.626 188.2 395.626 190.5C400.726 195.4 408.426 197.3 416.326 197.5ZM403.626 189.9C398.326 189.9 394.226 185.6 394.226 180.3C394.226 175 398.326 170.7 403.626 170.7C408.926 170.7 413.026 175 413.026 180.3C413.126 185.6 409.026 189.9 403.626 189.9ZM438.726 193.4C444.426 193.4 449.026 189.4 449.026 183.3V167.6H445.626V182.7C445.626 187 442.826 190.2 438.726 190.2C434.626 190.2 431.826 187 431.826 182.7V167.6H428.326V183.3C428.326 189.4 432.926 193.4 438.726 193.4ZM465.326 193V167.5H461.926V193H465.326ZM488.926 193V170.6H497.626V167.5H476.726V170.6H485.426V193H488.926ZM526.226 193V189.9H512.526V181.7H525.926V178.7H512.526V170.5H526.226V167.4H509.126V193H526.226ZM550.126 193.4C555.126 193.4 559.426 190.6 561.526 186.4L558.426 184.8C556.826 187.8 553.826 189.9 550.126 189.9C544.826 189.9 540.726 185.6 540.726 180.3C540.726 175 544.826 170.7 550.126 170.7C553.726 170.7 556.826 172.7 558.426 175.7L561.526 174.1C559.426 170 555.126 167.2 550.126 167.2C542.826 167.2 537.326 173.1 537.326 180.3C537.326 187.5 542.826 193.4 550.126 193.4ZM583.126 193V170.6H591.826V167.5H570.926V170.6H579.626V193H583.126ZM614.826 164.3L617.826 159.4H615.126L612.526 164.3H614.826ZM613.626 193.4C620.826 193.4 626.426 187.5 626.426 180.3C626.426 173.1 620.826 167.2 613.626 167.2C606.326 167.2 600.726 173.1 600.726 180.3C600.726 187.5 606.326 193.4 613.626 193.4ZM613.626 190C608.226 190 604.126 185.7 604.126 180.2C604.126 174.7 608.226 170.4 613.626 170.4C619.026 170.4 623.026 174.7 623.026 180.2C623.026 185.7 619.026 190 613.626 190ZM642.126 193V173L655.826 193H659.726V167.5H656.226V187.5L642.526 167.5H638.626V193H642.126ZM676.526 193V167.5H673.126V193H676.526ZM701.526 193.4C706.526 193.4 710.826 190.6 712.926 186.4L709.826 184.8C708.226 187.8 705.226 189.9 701.526 189.9C696.226 189.9 692.126 185.6 692.126 180.3C692.126 175 696.226 170.7 701.526 170.7C705.126 170.7 708.226 172.7 709.826 175.7L712.926 174.1C710.826 170 706.526 167.2 701.526 167.2C694.226 167.2 688.726 173.1 688.726 180.3C688.726 187.5 694.326 193.4 701.526 193.4ZM725.926 193L727.926 187.9H741.026L743.126 193H746.826L736.226 167.5H732.626L722.226 193H725.926ZM739.926 184.8H729.126L734.426 171.5H734.526L739.926 184.8ZM766.326 193.4C771.426 193.4 775.526 190.6 775.526 185.9C775.526 180.8 770.726 179.9 767.026 178.9L766.626 178.8L766.226 178.7C763.326 177.9 760.626 177.2 760.626 174.4C760.626 172.2 762.626 170.1 766.026 170.1C768.926 170.1 770.826 171.6 771.626 174.3L774.726 173.4C773.526 169.2 770.426 167 765.926 167C760.926 167 757.126 170.1 757.126 174.3C757.126 179.4 761.526 180.5 765.326 181.5L765.526 181.6L765.926 181.7C766.026 181.7 766.026 181.7 766.126 181.8L766.526 181.9C769.326 182.6 771.926 183.2 771.926 185.9C771.926 188.5 769.526 190.2 766.226 190.2C763.126 190.2 760.526 188.7 759.626 185.7L756.326 186.6C757.726 191 761.626 193.4 766.326 193.4Z" fill="white"/>
</g>
<defs>
<clipPath id="clip0_594_15">
<rect width="782" height="198" fill="white"/>
</clipPath>
</defs>
</svg>
