<?xml version="1.0" encoding="UTF-8"?>
<svg width="162px" height="30px" viewBox="0 0 162 30" version="1.1" xmlns="http://www.w3.org/2000/svg" xmlns:xlink="http://www.w3.org/1999/xlink">
    <title>F8642F76-58D6-45B5-97F7-E5A78C5FEC17</title>
    <defs>
        <polygon id="path-1" points="0 0.1622 19.861487 0.1622 19.861487 28.9998056 0 28.9998056"></polygon>
        <polygon id="path-3" points="0.4015 0.552 29.163 0.552 29.163 28.611 0.4015 28.611"></polygon>
    </defs>
    <g id="Desktop" stroke="none" stroke-width="1" fill="none" fill-rule="evenodd">
        <g id="Sensa" transform="translate(-135.000000, -235.000000)">
            <g id="Logo-Sensa" transform="translate(135.000000, 235.000000)">
                <g id="Group-3" transform="translate(0.000000, 0.838000)">
                    <mask id="mask-2" fill="white">
                        <use xlink:href="#path-1"></use>
                    </mask>
                    <g id="Clip-2"></g>
                    <path d="M13.8389,1.1042 C15.6429,1.9002 16.5519,1.7212 16.5749,0.5692 L17.3269,0.5692 L17.9219,8.3642 L17.2109,8.4402 C16.6899,6.2462 15.9209,4.5512 14.9179,3.3582 C13.6109,1.7842 11.8839,1.0402 9.7439,1.1262 C8.2279,1.1502 6.9839,1.5772 6.0269,2.3962 C5.4359,2.8572 5.0459,3.4872 4.8529,4.2842 C4.6209,5.0422 4.5919,5.8312 4.7769,6.6482 C4.9149,7.3452 5.2659,7.9592 5.8129,8.4972 C6.4919,9.1922 8.1229,10.0042 10.7039,10.9402 C13.2099,11.8642 14.9179,12.5992 15.8429,13.1362 C17.2079,13.9492 18.2319,14.8992 18.9229,15.9852 C19.6199,17.1422 19.9239,18.6002 19.8509,20.3602 C19.7199,22.7972 18.7439,24.8652 16.9219,26.5752 C15.0269,28.3332 12.5419,29.1352 9.4739,28.9812 C7.7029,28.9032 5.9109,28.3542 4.1049,27.3242 C3.4069,26.9332 2.8519,26.6632 2.4339,26.5262 C2.0179,26.3932 1.6419,26.4932 1.2929,26.8252 C0.9439,27.1602 0.7439,27.7432 0.6939,28.5772 L-0.0001,28.5772 L-0.0001,19.9872 L0.6939,19.9872 C1.2629,22.3292 2.1969,24.1522 3.5029,25.4592 C5.0459,26.9732 7.0089,27.7752 9.3979,27.8702 C11.2939,27.9452 12.8429,27.5472 14.0359,26.6912 C14.7939,26.1502 15.3159,25.4592 15.6149,24.6062 C15.8959,23.8902 15.9979,23.0432 15.9209,22.0532 C15.8429,21.2702 15.5589,20.5412 15.0739,19.8762 C14.6399,19.3272 13.9339,18.7632 12.9579,18.2022 C11.9999,17.6612 10.8299,17.1342 9.4739,16.6222 C8.1099,16.0962 7.0999,15.6582 6.4349,15.3152 C2.5279,13.3352 0.5659,10.8342 0.5379,7.8062 C0.5379,5.6512 1.2969,3.8622 2.8109,2.4342 C4.5549,0.9202 6.8039,0.1622 9.5449,0.1622 C10.9719,0.1622 12.4059,0.4772 13.8389,1.1042" id="Fill-1" fill="#FFFFFF" mask="url(#mask-2)"></path>
                </g>
                <path d="M52.9004,1.3299 L53.3244,8.0349 L52.5674,8.1479 C52.3044,4.1689 50.0674,2.1739 45.8624,2.1739 L38.8114,2.1739 L38.8114,13.8919 L42.3844,13.8919 C45.1284,13.8919 46.5044,12.4889 46.5044,9.6759 L47.2544,9.6759 L47.2544,19.0509 L46.5044,19.0509 C46.5044,16.1889 45.1284,14.7589 42.3844,14.7589 L38.8114,14.7589 L38.8114,23.9779 C38.8114,27.1179 40.9254,28.6929 45.1494,28.6929 C51.0634,28.6929 54.1554,26.2489 54.4254,21.3689 L55.1204,21.4229 L54.6364,29.4419 L30.3674,29.4419 L30.3674,28.6759 C32.7094,28.6229 33.8804,27.4569 33.8804,25.1769 L33.8804,5.6359 C33.8994,3.2429 32.7244,2.0599 30.3674,2.1009 L30.3674,1.3299 L52.9004,1.3299 Z" id="Fill-4" fill="#FFFFFF"></path>
                <path d="M75.2852,1.3299 C75.2852,1.7669 75.6092,2.3829 76.2522,3.1819 C78.8212,7.0089 83.0952,12.8869 89.0632,20.8069 L89.0632,5.6359 C89.0632,3.2809 87.8862,2.1009 85.5292,2.1009 L85.5292,1.3299 L93.4282,1.3299 L93.4282,2.1399 C91.1082,2.1149 89.9572,3.2809 89.9572,5.6359 L89.9572,29.4419 L88.4672,29.4419 L69.8392,4.4009 L69.8392,25.1339 C69.8232,27.5309 70.9892,28.7319 73.3352,28.7319 L73.3352,29.4419 L65.4502,29.4419 L65.4502,28.6909 C67.7432,28.6909 68.8932,27.5039 68.9122,25.1339 L68.9122,5.6359 C68.8932,3.2809 67.7432,2.1009 65.4502,2.1009 L65.4502,1.3299 L75.2852,1.3299 Z" id="Fill-6" fill="#FFFFFF"></path>
                <path d="M118.126,1.9422 C119.931,2.7382 120.84,2.5592 120.867,1.4072 L121.616,1.4072 L122.211,9.2022 L121.498,9.2782 C120.975,7.0842 120.207,5.3892 119.206,4.1962 C117.898,2.6222 116.173,1.8782 114.031,1.9642 C112.514,1.9882 111.276,2.4152 110.314,3.2342 C109.725,3.6952 109.332,4.3252 109.144,5.1222 C108.907,5.8802 108.886,6.6692 109.062,7.4862 C109.207,8.1832 109.554,8.7972 110.102,9.3352 C110.783,10.0302 112.412,10.8422 114.992,11.7782 C117.491,12.7022 119.206,13.4372 120.136,13.9742 C121.492,14.7872 122.517,15.7372 123.218,16.8232 C123.9,17.9802 124.213,19.4382 124.137,21.1982 C124.007,23.6352 123.034,25.7032 121.213,27.4132 C119.311,29.1712 116.828,29.9732 113.765,29.8192 C111.986,29.7412 110.193,29.1922 108.391,28.1622 C107.695,27.7712 107.139,27.5012 106.722,27.3642 C106.307,27.2312 105.923,27.3312 105.574,27.6632 C105.232,27.9982 105.035,28.5812 104.98,29.4152 L104.289,29.4152 L104.289,20.8252 L104.98,20.8252 C105.545,23.1672 106.483,24.9902 107.793,26.2972 C109.332,27.8112 111.295,28.6132 113.684,28.7082 C115.58,28.7832 117.131,28.3852 118.321,27.5292 C119.08,26.9882 119.609,26.2972 119.899,25.4442 C120.185,24.7282 120.283,23.8812 120.207,22.8912 C120.136,22.1082 119.851,21.3792 119.364,20.7142 C118.925,20.1652 118.218,19.6012 117.244,19.0402 C116.286,18.4992 115.121,17.9722 113.765,17.4602 C112.399,16.9342 111.389,16.4962 110.717,16.1532 C106.813,14.1732 104.853,11.6722 104.825,8.6442 C104.825,6.4892 105.583,4.7002 107.099,3.2722 C108.847,1.7582 111.093,1.0002 113.835,1.0002 C115.261,1.0002 116.696,1.3152 118.126,1.9422" id="Fill-8" fill="#FFFFFF"></path>
                <g id="Group-12" transform="translate(132.000000, 0.838000)">
                    <mask id="mask-4" fill="white">
                        <use xlink:href="#path-3"></use>
                    </mask>
                    <g id="Clip-11"></g>
                    <path d="M25.1055,24.74 L15.0545,0.552 L13.7455,0.552 L4.5485,24.74 C3.7525,26.795 2.3645,27.806 0.4015,27.761 L0.4015,28.611 L7.5115,28.611 L7.5115,27.761 C5.3295,27.761 4.6445,26.758 5.4555,24.74 C5.4555,24.74 9.5705,14.03 12.3795,6.688 C13.8155,10.265 15.6755,14.867 17.1485,18.528 L10.4605,18.528 L10.1525,19.336 L17.4795,19.336 C18.7465,22.469 19.6665,24.74 19.6665,24.74 C20.4935,26.781 19.8115,27.793 17.6205,27.761 L17.6205,28.611 L29.1635,28.611 L29.1635,27.761 C27.3025,27.714 25.9535,26.701 25.1055,24.74" id="Fill-10" fill="#FFFFFF" mask="url(#mask-4)"></path>
                </g>
            </g>
        </g>
    </g>
</svg>