<svg data-name="Siles logo" xmlns="http://www.w3.org/2000/svg" width="241.009" height="40.58" viewBox="0 0 241.009 40.58">
    <defs>
        <clipPath id="okq82avvta">
            <path data-name="Rectángulo 222" style="fill:none" d="M0 0h241.009v40.58H0z"/>
        </clipPath>
    </defs>
    <g data-name="Grupo 144" style="clip-path:url(#okq82avvta)">
        <path data-name="Trazado 209" d="M73.1 16.87a8.7 8.7 0 0 0-.819-3.933 7.519 7.519 0 0 0-13.587-.237 9.772 9.772 0 0 0-.533 7.115 7.4 7.4 0 0 0 8.977 5.408c3.61-.787 5.952-4.009 5.964-8.356m6.049.169c-.018 8-5.8 13.81-13.749 13.807a13.493 13.493 0 0 1-13.775-13.84C51.6 8.915 57.5 3.08 65.675 3.1c7.779.015 13.493 5.929 13.475 13.942" transform="translate(98.791 5.925)" style="fill:#fff"/>
        <path data-name="Trazado 210" d="M67.488 6.63c3.645-4.73 12.184-4.487 15.456-.653a10.171 10.171 0 0 1 2.488 6.713c.047 5.547.035 17.572.035 17.572h-6.124s.017-10.891.017-15.818c0-.329.02-.664-.012-.991-.323-3.252-2.037-5.008-4.976-5.122a5.738 5.738 0 0 0-6.258 4.787 13.622 13.622 0 0 0-.143 2.6c0 4.429.017 14.545.017 14.545h-6.173L61.821 3.7H67.5s-.009 2.249-.009 2.934" transform="translate(118.288 5.909)" style="fill:#fff"/>
        <path data-name="Trazado 211" d="M33.559 5.084V0l-.017.029-6.02 1.821c.006 11.171.009 23.146-.012 34.316h6.069c-.032-9.97-.02-21.112-.02-31.082" transform="translate(52.643 -.001)" style="fill:#fff"/>
        <path data-name="Trazado 212" d="M55.83 6.8V1.472h-6.115V6.8h-2.276v5.078h2.276v21.474h6.115V11.876h3.624A14.781 14.781 0 0 1 64.09 6.8z" transform="translate(90.779 2.815)" style="fill:#fff"/>
        <path data-name="Trazado 213" d="M37.041 21.852c-.216-3.19-2.118-5.367-5.766-6.471-1.3-.393-2.654-.615-3.977-.947-1.433-.358-2.969-.37-4.268-1.2a2.389 2.389 0 0 1-.355-3.9c2.281-2.147 6.777-1.346 8.071 1.495l.064.122c.125.256.236.545.236.545l.253-.079 5.247-1.585a1.87 1.87 0 0 0-.084-.286 8.619 8.619 0 0 0-4-4.874 12.937 12.937 0 0 0-12.257.05 7.8 7.8 0 0 0-4.178 8.053c.326 2.969 2.4 5.131 5.714 5.909 2.328.545 4.685.985 7 1.6 1.664.446 2.412 1.372 2.436 2.593a3.213 3.213 0 0 1-2.495 3.023 7.63 7.63 0 0 1-2.325.4h-.032a5.12 5.12 0 0 1-.463-.02l-.084-.006c-.1-.012-.2-.023-.294-.038a6.733 6.733 0 0 1-4.735-3.458l-5.376 1.632a9.532 9.532 0 0 0 5.475 5.577 14.551 14.551 0 0 0 11.352-.239 7.55 7.55 0 0 0 4.842-7.9" transform="translate(29.418 6.033)" style="fill:#fff"/>
        <path data-name="Trazado 214" d="M61.441 21.852c-.216-3.19-2.118-5.367-5.766-6.471-1.3-.393-2.654-.615-3.977-.947-1.433-.358-2.972-.37-4.268-1.2a2.389 2.389 0 0 1-.355-3.9c2.281-2.147 6.777-1.346 8.071 1.495l.064.122c.125.256.236.545.236.545l.253-.079 5.247-1.585a1.87 1.87 0 0 0-.084-.286 8.619 8.619 0 0 0-4-4.874 12.937 12.937 0 0 0-12.257.05 7.8 7.8 0 0 0-4.178 8.053c.326 2.969 2.4 5.131 5.714 5.909 2.328.545 4.685.985 7 1.6 1.664.446 2.412 1.372 2.436 2.593a3.213 3.213 0 0 1-2.495 3.023 7.63 7.63 0 0 1-2.325.4h-.032a5.12 5.12 0 0 1-.463-.02l-.084-.006c-.1-.012-.2-.023-.294-.038a6.733 6.733 0 0 1-4.735-3.458l-5.376 1.632a9.532 9.532 0 0 0 5.475 5.577 14.551 14.551 0 0 0 11.352-.239 7.55 7.55 0 0 0 4.842-7.9" transform="translate(76.109 6.033)" style="fill:#fff"/>
        <path data-name="Trazado 215" d="M50.569 14.174c-2.022-.041-4.968-.015-6.993-.015s-4.953-.02-6.978.012a2.652 2.652 0 0 1 .181-.912A6.962 6.962 0 0 1 43.8 8.1a6.606 6.606 0 0 1 6.614 5.1 3.69 3.69 0 0 1 .152.967m5.7-1.072C53.716 2.263 41.625.791 35.381 5.949 30.7 9.815 29.052 17.364 31.7 23.2c2.322 5.128 6.465 7.654 12 7.637 4.979-.015 8.808-2.037 11.3-6.305l-.017.017-5.372-1.629-.011-.02c-.023.02-.358.315-.673.618a7.287 7.287 0 0 1-12.217-3.359c-.364-1.343-.283-1.387-.283-1.387 5.958 0 13.242-.012 19.2.017h.772a17.1 17.1 0 0 0-.137-5.687" transform="translate(58.242 5.9)" style="fill:#fff"/>
        <path data-name="Trazado 216" d="M90.909 14.174c-2.022-.041-4.968-.015-6.993-.015s-4.956-.02-6.978.012a2.653 2.653 0 0 1 .181-.912A6.962 6.962 0 0 1 84.144 8.1a6.606 6.606 0 0 1 6.614 5.1 3.689 3.689 0 0 1 .152.967m5.7-1.072C94.056 2.263 81.965.791 75.721 5.949c-4.677 3.866-6.328 11.415-3.686 17.251 2.322 5.128 6.465 7.654 12 7.637 4.979-.015 8.808-2.037 11.3-6.305l-.018.017-5.366-1.629-.006-.02c-.023.02-.358.315-.673.618a7.287 7.287 0 0 1-12.217-3.359c-.364-1.343-.283-1.387-.283-1.387 5.958 0 13.242-.012 19.2.017h.772a17.1 17.1 0 0 0-.137-5.687" transform="translate(135.436 5.9)" style="fill:#fff"/>
        <path data-name="Rectángulo 221" transform="translate(69.62 14.314)" style="fill:#fff" d="M0 0h6.13v21.849H0z"/>
        <path data-name="Trazado 217" d="M30.664 4.843A3.461 3.461 0 1 1 27.2 1.382a3.462 3.462 0 0 1 3.461 3.461" transform="translate(45.43 2.643)" style="fill:#fff"/>
        <path data-name="Trazado 218" d="M83.085 6.848h.825c.533 0 .775-.245.775-.632s-.242-.629-.775-.629h-.825zm2.182 1.891h-.484l-.778-1.457h-.921v1.457h-.434V5.15h1.26a1.111 1.111 0 0 1 1.212 1.066 1.062 1.062 0 0 1-.679.97zm1.6-1.795a3.053 3.053 0 1 0-6.107 0 3.053 3.053 0 1 0 6.107 0m.437 0a3.49 3.49 0 1 1-3.49-3.49 3.478 3.478 0 0 1 3.49 3.49" transform="translate(153.705 6.608)" style="fill:#fff"/>
        <path data-name="Trazado 219" d="M28.509 37.174a3.613 3.613 0 0 0 2.092-.7c6.084-4.015 6.29-11.564 1.786-18.965-3.587-5.891-2.849-11.01.14-15.3a.273.273 0 0 0-.221-.431H.271A.273.273 0 0 0 0 2.054V36.9a.273.273 0 0 0 .271.274z" transform="translate(0 3.405)" style="fill:#9fd6e5"/>
    </g>
</svg>
