<svg width="780" height="127" viewBox="0 0 780 127" fill="none" xmlns="http://www.w3.org/2000/svg">
<path d="M233.119 116.998C251.631 116.861 270.142 108.924 270.142 89.0825C270.142 75.7615 258.743 68.5272 246.533 63.2045L245.568 62.7882C243.796 62.0319 242.012 61.3134 240.25 60.62C238.879 60.0762 237.449 59.5278 235.998 58.9591L235.125 58.6153L234.249 58.2659C224.895 54.5057 215.294 49.6518 215.294 39.5468C215.294 30.7891 223.384 25.5892 232.708 25.5892C244.638 25.5892 254.51 32.1575 261.092 39.2731L271.239 29.5575C261.64 19.0209 249.574 13 234.491 13C213.1 13 200.073 27.2313 200.073 40.9152C200.073 58.2937 215.979 64.9989 229.28 70.6093C245.46 77.4512 254.922 81.1459 254.922 90.0404C254.922 100.167 245.049 104.272 233.119 104.409C222.15 104.409 211.043 97.9771 205.147 90.5878L195 100.714C204.598 111.114 219.545 117.135 233.119 116.998ZM346.829 116.314V26.2734H378.64V13.6842H299.796V26.2734H331.608V116.314H346.829ZM425.846 116.314V86.4826H449.294L469.451 116.314H486.865L464.788 83.7458C477.815 78.2723 486.865 65.6831 486.865 50.0834C486.865 29.4207 470.685 13.821 450.528 13.6842H407.828V22.7603L410.626 26.9492V116.314H425.846ZM450.391 73.8934H425.846V26.2734H450.391C462.046 26.2734 471.644 36.2626 471.644 50.0834C471.644 64.041 462.046 73.8934 450.391 73.8934ZM569.722 116.998C598.517 116.998 621.965 94.8298 621.965 64.9989C621.965 35.1679 598.517 13 569.722 13C540.927 13 517.479 35.1679 517.479 64.9989C517.479 94.8298 540.927 116.998 569.722 116.998ZM569.722 104.409C548.057 104.409 532.699 85.9352 532.699 64.9989C532.699 44.1993 548.057 25.5892 569.722 25.5892C591.387 25.5892 606.744 44.1993 606.744 64.9989C606.744 85.9352 591.524 104.409 569.722 104.409ZM669.17 116.314V13.6842H648.353V24.1566H654.017L653.95 116.314H669.17ZM748.188 116.314V26.2734H780V13.6842H701.156V26.2734H732.968V116.314H748.188Z" fill="white"/>
<path d="M140 0V113.669H119.966L119.966 18.0733H69.7336V0H140ZM95.1602 44.9061V62.5878H17.5282V109.318H78.8828V127H0V44.9061H95.1602Z" fill="white"/>
</svg>
